<svg xmlns="http://www.w3.org/2000/svg" viewBox="0 0 24 24">
  <!-- Berberim ikon seti: 24 px ızgara, 1.75 px çizgi, currentColor. Kullanım: <svg class="icon"><use href=".../icons.svg#saat"/></svg> -->
  <symbol id="saat" viewBox="0 0 24 24"><circle cx="12" cy="12" r="9"/><path d="M12 7v5l3 2"/></symbol>
  <symbol id="konum" viewBox="0 0 24 24"><path d="M12 21s-6.5-5.6-6.5-11a6.5 6.5 0 0 1 13 0c0 5.4-6.5 11-6.5 11z"/><circle cx="12" cy="10" r="2.5"/></symbol>
  <symbol id="telefon" viewBox="0 0 24 24"><path d="M5 4h3.5l1.5 4-2 1.5a11 11 0 0 0 6.5 6.5l1.5-2 4 1.5V19a2 2 0 0 1-2 2A15 15 0 0 1 3 6a2 2 0 0 1 2-2z"/></symbol>
  <symbol id="takvim" viewBox="0 0 24 24"><rect x="4" y="5" width="16" height="15" rx="2"/><path d="M4 10h16M9 3v4M15 3v4"/></symbol>
  <symbol id="makas" viewBox="0 0 24 24"><circle cx="6" cy="6" r="2.5"/><circle cx="6" cy="18" r="2.5"/><path d="M8 7.5L20 18M8 16.5L20 6"/></symbol>
  <symbol id="onay" viewBox="0 0 24 24"><path d="M5 12.5l4.5 4.5L19 7.5"/></symbol>
  <symbol id="carpi" viewBox="0 0 24 24"><path d="M6 6l12 12M18 6L6 18"/></symbol>
  <symbol id="sol-ok" viewBox="0 0 24 24"><path d="M14.5 6l-6 6 6 6"/></symbol>
  <symbol id="sag-ok" viewBox="0 0 24 24"><path d="M9.5 6l6 6-6 6"/></symbol>
  <symbol id="kullanici" viewBox="0 0 24 24"><circle cx="12" cy="8" r="3.5"/><path d="M5 20a7 7 0 0 1 14 0"/></symbol>
  <symbol id="dukkan" viewBox="0 0 24 24"><path d="M4 9l1.5-5h13L20 9M4 9v11h16V9M4 9a2.67 2.67 0 0 0 5.33 0 2.67 2.67 0 0 0 5.34 0A2.67 2.67 0 0 0 20 9M10 20v-5h4v5"/></symbol>
  <symbol id="liste" viewBox="0 0 24 24"><path d="M9 7h11M9 12h11M9 17h11M4.5 7h.01M4.5 12h.01M4.5 17h.01"/></symbol>
  <symbol id="uyari" viewBox="0 0 24 24"><path d="M12 4l9 16H3z"/><path d="M12 10v4M12 17h.01"/></symbol>
  <symbol id="bilgi" viewBox="0 0 24 24"><circle cx="12" cy="12" r="9"/><path d="M12 11v5M12 8h.01"/></symbol>
  <symbol id="hata" viewBox="0 0 24 24"><circle cx="12" cy="12" r="9"/><path d="M12 7.5v5.5M12 16.5h.01"/></symbol>
  <symbol id="ara" viewBox="0 0 24 24"><circle cx="11" cy="11" r="6.5"/><path d="M16 16l4 4"/></symbol>
  <symbol id="bugun" viewBox="0 0 24 24"><rect x="4" y="5" width="16" height="15" rx="2"/><path d="M4 10h16M9 3v4M15 3v4M9 15h6"/></symbol>
</svg>
